<svg xmlns="http://www.w3.org/2000/svg" xmlns:xlink="http://www.w3.org/1999/xlink" xmlns:lucid="lucid" width="1736" height="1287.99"><g transform="translate(-12.679245283018929 -12.012578616352208)" lucid:page-tab-id="0_0"><path d="M365 365c0-2.76 2.24-5 5-5h150c2.76 0 5 2.24 5 5v110c0 2.76-2.24 5-5 5H370c-2.76 0-5-2.24-5-5z" stroke="#666" stroke-width="2" fill="#99d2f2"/><path d="M423.9 413.8c8.4 0 15.3-6.9 15.3-15.3 0-8.5-6.9-15.3-15.3-15.3s-15.3 6.8-15.3 15.3c0 8.4 6.9 15.3 15.3 15.3m.3 6c-14.6 0-26.6 12.3-27.9 28-.2 2 .7 3.9 2.3 5 7.4 4.6 16.2 7.3 25.6 7.3 9.4 0 18.2-2.7 25.6-7.3 1.7-1.1 2.5-3 2.4-5-1.4-15.7-13.4-28-28-28m53.3 1.7v-7.9l7.8-4.5v-4.4h-7.8v-6.4l8.1-5.4v-8.1h-16.2v37.6c-7.1 2.5-12.2 9.2-12.2 17.2 0 10 8.2 18.2 18.3 18.2 10.1 0 18.3-8.2 18.3-18.2 0-9.4-7.2-17.1-16.3-18.1m-2 28.2c-5.6 0-10.1-4.5-10.1-10.1s4.5-10.2 10.1-10.2 10.1 4.6 10.1 10.2-4.5 10.1-10.1 10.1" fill="#bde2f7"/><use xlink:href="#a" transform="matrix(1,0,0,1,370,365) translate(7.599999999999994 58.6)"/><use xlink:href="#b" transform="matrix(1,0,0,1,370,365) translate(37.599999999999994 58.6)"/><use xlink:href="#c" transform="matrix(1,0,0,1,370,365) translate(90.44999999999999 58.6)"/><path d="M1245 366c0-2.76 2.24-5 5-5h150c2.76 0 5 2.24 5 5v110c0 2.76-2.24 5-5 5h-150c-2.76 0-5-2.24-5-5z" stroke="#666" stroke-width="2" fill="#c7e8ac"/><path d="M1282.4 428.4h3.4c1.7 0 3.1.6 3.6 2.3.8 2.7 1.9 4.8 3.2 7.2.9 1.5.7 3.2-.5 4.4l-2.5 2.5c-.7.7-.7 1.9 0 2.6l7.9 7.9c.7.7 1.9.7 2.6 0l2.5-2.5c1.2-1.2 2.9-1.3 4.4-.5 2.4 1.3 5 2.4 7.8 3.2 1.6.5 2.8 1.9 2.8 3.6v3.4c0 1 .8 3 1.8 3h11.2c1 0 1.8-2 1.8-3v-3.4c0-1.7 1.2-3.1 2.8-3.6 2.8-.8 5.4-1.9 7.8-3.2 1.5-.8 3.2-.7 4.4.5l2.5 2.5c.7.7 1.9.7 2.6 0l7.9-7.9c.7-.7.7-1.8 0-2.5l-2.5-2.5c-1.2-1.1-1.3-2.8-.5-4.2 1.3-2.4 2.4-4.8 3.2-7.5.5-1.7 1.9-2.3 3.6-2.3h3.4c1 0 1.8-1.9 1.8-2.9v-11.1c0-1.1-.8-.8-1.8-.8h-3.4c-1.7 0-3.1-1.7-3.6-3.3-.8-2.8-1.9-6-3.2-8.4-.9-1.4-.7-3.2.5-4.4l2.5-2.5c.7-.7.7-1.9 0-2.6l-7.9-7.8c-.7-.8-1.9-.8-2.6 0l-2.5 2.4c-1.2 1.2-2.9 1.4-4.4.6-2.4-1.4-5-2.5-7.8-3.3-1.6-.5-2.8-1.9-2.8-3.6v-3.4c0-1-.8-.7-1.8-.7h-11.2c-1 0-1.8-.3-1.8.7v3.4c0 1.7-1.2 3.1-2.8 3.6-2.8.8-5.4 1.9-7.8 3.3-1.5.8-3.2.6-4.4-.6l-2.5-2.4c-.7-.8-1.9-.8-2.6 0l-7.9 7.8c-.7.8-.7 2 0 2.7l2.5 2.6c1.2 1.1 1.4 3 .5 4.5-1.3 2.4-2.4 5.3-3.2 8.1-.5 1.6-1.9 3.3-3.6 3.3h-3.4c-1 0-1.8-.3-1.8.8v11.1c0 1 .8 2.9 1.8 2.9m42.6-30.7c12.3 0 22.2 9.9 22.2 22.2 0 12.3-9.9 22.2-22.2 22.2-12.3 0-22.2-9.9-22.2-22.2 0-12.3 9.9-22.2 22.2-22.2" fill="#dbf0c9"/><use xlink:href="#d" transform="matrix(1,0,0,1,1250,366) translate(4.599999999999994 58.6)"/><use xlink:href="#e" transform="matrix(1,0,0,1,1250,366) translate(34.599999999999994 58.6)"/><path d="M32.68 37c0-2.75 2.24-5 5-5h838c2.76 0 5 2.25 5 5v38c0 2.77-2.24 5-5 5h-838c-2.76 0-5-2.23-5-5z" fill="none"/><use xlink:href="#f" transform="matrix(1,0,0,1,32.67924528301893,32.01257861635221) translate(0 31.11111111111111)"/><use xlink:href="#g" transform="matrix(1,0,0,1,32.67924528301893,32.01257861635221) translate(110.320987654321 31.11111111111111)"/><use xlink:href="#h" transform="matrix(1,0,0,1,32.67924528301893,32.01257861635221) translate(169.4814814814815 31.11111111111111)"/><use xlink:href="#i" transform="matrix(1,0,0,1,32.67924528301893,32.01257861635221) translate(417.1851851851852 31.11111111111111)"/><path d="M32 80H1728.7" stroke="#999" stroke-width="2" fill="none"/><path d="M1040.68 37c0-2.75 2.24-5 5-5h678c2.76 0 5 2.25 5 5v38c0 2.77-2.24 5-5 5h-678c-2.76 0-5-2.23-5-5z" fill="none"/><use xlink:href="#j" transform="matrix(1,0,0,1,1040.6792452830189,32.01257861635221) translate(538.0617283950633 28.4444444444444)"/><use xlink:href="#k" transform="matrix(1,0,0,1,1040.6792452830189,32.01257861635221) translate(613.2469135802477 28.4444444444444)"/><use xlink:href="#l" transform="matrix(1,0,0,1,1040.6792452830189,32.01257861635221) translate(682.2592592592594 28.4444444444444)"/><path d="M145 366c0-2.76 2.24-5 5-5h150c2.76 0 5 2.24 5 5v110c0 2.76-2.24 5-5 5H150c-2.76 0-5-2.24-5-5z" stroke="#666" stroke-width="2" fill="#99d2f2"/><path d="M186.1 460.2h77.8c6.1 0 11.1-4.9 11.1-11.1v-55.5c0-6.2-5-11.1-11.1-11.1h-77.8c-6.1 0-11.1 4.9-11.1 11.1v55.5c0 6.2 5 11.1 11.1 11.1m44.5-55.5h37v7.4h-37v-7.4zm0 14.8h37v7.4h-37v-7.4zm0 14.8h37v7.4h-37v-7.4zm-29-33.7c5.4 0 9.7 4.3 9.7 9.7 0 5.4-4.3 9.7-9.7 9.7-5.3 0-9.7-4.3-9.7-9.7 0-5.4 4.4-9.7 9.7-9.7m.2 23.3c9.3 0 17 7.8 17.8 17.8.1 1.3-.4 2.5-1.5 3.2-4.7 2.9-10.3 4.6-16.3 4.6s-11.5-1.7-16.3-4.6c-1-.7-1.6-1.9-1.5-3.2.9-10 8.5-17.8 17.8-17.8" fill="#bde2f7"/><use xlink:href="#m" transform="matrix(1,0,0,1,150,366) translate(14.099999999999994 58.6)"/><use xlink:href="#n" transform="matrix(1,0,0,1,150,366) translate(44.099999999999994 58.6)"/><path d="M365 525c0-2.76 2.24-5 5-5h150c2.76 0 5 2.24 5 5v110c0 2.76-2.24 5-5 5H370c-2.76 0-5-2.24-5-5z" stroke="#666" stroke-width="2" fill="#99d2f2"/><use xlink:href="#o" transform="matrix(1,0,0,1,370,525) translate(15.574999999999996 47.8)"/><use xlink:href="#p" transform="matrix(1,0,0,1,370,525) translate(60.574999999999996 47.8)"/><use xlink:href="#q" transform="matrix(1,0,0,1,370,525) translate(54.025 69.4)"/><path d="M365 685c0-2.76 2.24-5 5-5h150c2.76 0 5 2.24 5 5v110c0 2.76-2.24 5-5 5H370c-2.76 0-5-2.24-5-5z" stroke="#666" stroke-width="2" fill="#99d2f2"/><use xlink:href="#r" transform="matrix(1,0,0,1,370,685) translate(15.574999999999996 47.8)"/><use xlink:href="#p" transform="matrix(1,0,0,1,370,685) translate(60.574999999999996 47.8)"/><use xlink:href="#s" transform="matrix(1,0,0,1,370,685) translate(45.55 69.4)"/><path d="M445 481v38" stroke="#999" stroke-width="2" fill="none"/><path d="M446 481h-2v-1h2zM446 520h-2v-1h2z" fill="#999"/><path d="M445 641v38" stroke="#999" stroke-width="2" fill="none"/><path d="M446 641h-2v-1h2zM446 680h-2v-1h2z" fill="#999"/><path d="M364 740h-11.38c-2.76 0-5-2.24-5-5V318.5" stroke="#999" stroke-width="2" fill="none"/><path d="M365 741h-1v-2h1z" fill="#999"/><path d="M347.62 303.24l4.64 14.26H343z" stroke="#999" stroke-width="2" fill="#999"/><path d="M445 519v-38" stroke="#999" stroke-width="2" fill="none"/><path d="M446 520h-2v-1h2zM446 481h-2v-1h2z" fill="#999"/><path d="M805 366c0-2.76 2.24-5 5-5h150c2.76 0 5 2.24 5 5v110c0 2.76-2.24 5-5 5H810c-2.76 0-5-2.24-5-5z" stroke="#666" stroke-width="2" fill="#ccc"/><path d="M874.5 381.5c16 0 29 13 29 29s-13 29-29 29-29-13-29-29 13-29 29-29m0-6.9c-19.8 0-35.9 16.1-35.9 35.9 0 19.8 16.1 35.8 35.9 35.8 19.8 0 35.8-16 35.8-35.8 0-19.8-16-35.9-35.8-35.9m45.1 90.8l-26.1-26.2 9.7-9.7 26.2 26.1c2.6 2.7 2.6 7.1 0 9.8-2.7 2.6-7.1 2.6-9.8 0m-38.3-66.2c0 4.2-3.4 7.6-7.6 7.6-4.2 0-7.6-3.4-7.6-7.6 0-4.2 3.4-7.6 7.6-7.6 4.2 0 7.6 3.4 7.6 7.6m-7.5 10.6c-7.3 0-13.2 6.1-13.9 13.9-.1 1 .3 2 1.2 2.5 3.7 2.3 8 3.6 12.7 3.6 4.7 0 9.1-1.3 12.8-3.6.8-.5 1.2-1.5 1.1-2.5-.6-7.8-6.6-13.9-13.9-13.9" fill="#dedede"/><use xlink:href="#t" transform="matrix(1,0,0,1,810,366) translate(30.049999999999997 58.6)"/><use xlink:href="#u" transform="matrix(1,0,0,1,810,366) translate(60.05 58.6)"/><path d="M845 506c0-2.76 2.24-5 5-5h150c2.76 0 5 2.24 5 5v110c0 2.76-2.24 5-5 5H850c-2.76 0-5-2.24-5-5z" stroke="#666" stroke-width="2" fill="#c7e8ac"/><use xlink:href="#v" transform="matrix(1,0,0,1,850,506) translate(28.049999999999997 47.8)"/><use xlink:href="#w" transform="matrix(1,0,0,1,850,506) translate(73.05 47.8)"/><use xlink:href="#u" transform="matrix(1,0,0,1,850,506) translate(45.05 69.4)"/><path d="M824 482v79h20" stroke="#999" stroke-width="2" fill="none"/><path d="M825 482h-2v-1h2zM845 562h-1v-2h1z" fill="#999"/><path d="M845 646c0-2.76 2.24-5 5-5h150c2.76 0 5 2.24 5 5v110c0 2.76-2.24 5-5 5H850c-2.76 0-5-2.24-5-5z" stroke="#666" stroke-width="2" fill="#c7e8ac"/><use xlink:href="#x" transform="matrix(1,0,0,1,850,646) translate(13.549999999999997 37)"/><use xlink:href="#y" transform="matrix(1,0,0,1,850,646) translate(58.55 37)"/><use xlink:href="#z" transform="matrix(1,0,0,1,850,646) translate(19.075000000000003 58.6)"/><use xlink:href="#A" transform="matrix(1,0,0,1,850,646) translate(110.925 58.6)"/><use xlink:href="#B" transform="matrix(1,0,0,1,850,646) translate(42.55 80.20000000000002)"/><path d="M824 482v219h20" stroke="#999" stroke-width="2" fill="none"/><path d="M825 482h-2v-1h2zM845 702h-1v-2h1z" fill="#999"/><path d="M845 786c0-2.76 2.24-5 5-5h150c2.76 0 5 2.24 5 5v110c0 2.76-2.24 5-5 5H850c-2.76 0-5-2.24-5-5z" stroke="#666" stroke-width="2" fill="#c7e8ac"/><use xlink:href="#C" transform="matrix(1,0,0,1,850,786) translate(13.549999999999997 47.8)"/><use xlink:href="#y" transform="matrix(1,0,0,1,850,786) translate(58.55 47.8)"/><use xlink:href="#u" transform="matrix(1,0,0,1,850,786) translate(45.05 69.4)"/><path d="M824 482v359h20" stroke="#999" stroke-width="2" fill="none"/><path d="M825 482h-2v-1h2zM845 842h-1v-2h1z" fill="#999"/><path d="M585 365c0-2.76 2.24-5 5-5h150c2.76 0 5 2.24 5 5v110c0 2.76-2.24 5-5 5H590c-2.76 0-5-2.24-5-5z" stroke="#666" stroke-width="2" fill="#ccc"/><path d="M697.9 382.8l-3.6-.2c-18.3-1.5-36.6-1.5-54.8-.2l-7.3.5c-9.7.7-17.2 8.8-17.2 18.5v48.8c0 11.1 14.4 15.4 20.4 6.1l15.3-17.6c3.5-4.1 8.6-6.4 14-6.4h.6c5.4 0 10.5 2.3 14 6.4l15.3 17.6c6 9.3 20.4 5 20.4-6.1v-48.9c0-9.7-7.4-17.7-17.1-18.5m-58.8 42.9c-9.2 0-16.7-7.5-16.7-16.7s7.5-16.6 16.7-16.6 16.6 7.4 16.6 16.6c0 9.2-7.4 16.7-16.6 16.7m55.5-33.3c3.1 0 5.6 2.5 5.6 5.5 0 3.1-2.5 5.6-5.6 5.6-3 0-5.5-2.5-5.5-5.6 0-3 2.5-5.5 5.5-5.5m-11.1 22.2c-3 0-5.5-2.5-5.5-5.6 0-3 2.5-5.5 5.5-5.5 3.1 0 5.6 2.5 5.6 5.5 0 3.1-2.5 5.6-5.6 5.6m11.1 11.1c-3 0-5.5-2.5-5.5-5.6 0-3 2.5-5.5 5.5-5.5 3.1 0 5.6 2.5 5.6 5.5 0 3.1-2.5 5.6-5.6 5.6m11.1-11.1c-3 0-5.5-2.5-5.5-5.6 0-3 2.5-5.5 5.5-5.5 3.1 0 5.6 2.5 5.6 5.5 0 3.1-2.5 5.6-5.6 5.6m-66.6-14.8c-5.1 0-9.3 4.1-9.3 9.2s4.2 9.3 9.3 9.3c5.1 0 9.2-4.2 9.2-9.3 0-5.1-4.1-9.2-9.2-9.2" fill="#dedede"/><use xlink:href="#D" transform="matrix(1,0,0,1,590,365) translate(37.05 58.6)"/><use xlink:href="#E" transform="matrix(1,0,0,1,590,365) translate(67.05 58.6)"/><path d="M625 525c0-2.76 2.24-5 5-5h150c2.76 0 5 2.24 5 5v110c0 2.76-2.24 5-5 5H630c-2.76 0-5-2.24-5-5z" stroke="#666" stroke-width="2" fill="#99d2f2"/><use xlink:href="#F" transform="matrix(1,0,0,1,630,525) translate(5.099999999999994 47.8)"/><use xlink:href="#G" transform="matrix(1,0,0,1,630,525) translate(50.099999999999994 47.8)"/><use xlink:href="#E" transform="matrix(1,0,0,1,630,525) translate(52.05 69.4)"/><path d="M604 481v99h20" stroke="#999" stroke-width="2" fill="none"/><path d="M605 481h-2v-1h2zM625 581h-1v-2h1z" fill="#999"/><path d="M625 685c0-2.76 2.24-5 5-5h150c2.76 0 5 2.24 5 5v110c0 2.76-2.24 5-5 5H630c-2.76 0-5-2.24-5-5z" stroke="#666" stroke-width="2" fill="#c7e8ac"/><path d="M705 786.1c6.4 0 12.5-1.3 18.1-3.6l-23.2-40.8v-47.5c-2 .2-3.9.6-5.8 1-20.2 4.9-35.2 23.1-35.2 44.8 0 25.5 20.6 46.1 46.1 46.1m28.7-82.2c-5.1-4.1-11.1-7.1-17.6-8.7-3.1-.7-6.2-1.2-9.4-1.3v42.9l27-32.9zm-24.4 40.5l19.8 34.9c13.2-8.1 22-22.7 22-39.3 0-12.2-4.7-23.2-12.3-31.5l-29.5 35.9z" fill="#dbf0c9"/><use xlink:href="#H" transform="matrix(1,0,0,1,630,685) translate(4.025000000000006 58.6)"/><use xlink:href="#I" transform="matrix(1,0,0,1,630,685) translate(49.025000000000006 58.6)"/><path d="M604 481v259h20" stroke="#999" stroke-width="2" fill="none"/><path d="M605 481h-2v-1h2zM625 741h-1v-2h1z" fill="#999"/><path d="M625 845c0-2.76 2.24-5 5-5h150c2.76 0 5 2.24 5 5v110c0 2.76-2.24 5-5 5H630c-2.76 0-5-2.24-5-5z" stroke="#666" stroke-width="2" fill="#c7e8ac"/><use xlink:href="#J" transform="matrix(1,0,0,1,630,845) translate(12.599999999999994 47.8)"/><use xlink:href="#K" transform="matrix(1,0,0,1,630,845) translate(57.599999999999994 47.8)"/><use xlink:href="#I" transform="matrix(1,0,0,1,630,845) translate(26.525 69.4)"/><path d="M604 481v419h20" stroke="#999" stroke-width="2" fill="none"/><path d="M605 481h-2v-1h2zM625 901h-1v-2h1z" fill="#999"/><path d="M1025 365c0-2.76 2.24-5 5-5h150c2.76 0 5 2.24 5 5v110c0 2.76-2.24 5-5 5h-150c-2.76 0-5-2.24-5-5z" stroke="#666" stroke-width="2" fill="#ccc"/><path d="M1147.6 470v-62.4c0-2.8-1-5.4-2.8-7.4l-23.5-26.5c-.8-.9-1.8-1.6-2.9-2.2-1.6-.9-3.5-1.5-5.4-1.5h-50.6v100h85.2zm-11.1-13.3h-63v-7.4h63v7.4zm0-18.5h-63v-7.5h63v7.5zm0-18.6h-63v-7.4h63v7.4zm-63-25.9h44.5v7.4h-44.5v-7.4z" fill="#dedede"/><use xlink:href="#L" transform="matrix(1,0,0,1,1030,365) translate(39.574999999999996 58.6)"/><use xlink:href="#M" transform="matrix(1,0,0,1,1030,365) translate(69.57499999999999 58.6)"/><path d="M1065 505c0-2.76 2.24-5 5-5h134c2.76 0 5 2.24 5 5v98c0 2.76-2.24 5-5 5h-134c-2.76 0-5-2.24-5-5z" stroke="#666" stroke-width="2" fill="#c7e8ac"/><path d="M1081 517c0-2.76 2.24-5 5-5h134c2.76 0 5 2.24 5 5v98c0 2.76-2.24 5-5 5h-134c-2.76 0-5-2.24-5-5z" stroke="#666" stroke-width="2" fill="#c7e8ac"/><use xlink:href="#N" transform="matrix(1,0,0,1,1086,517) translate(10.599999999999994 41.8)"/><use xlink:href="#O" transform="matrix(1,0,0,1,1086,517) translate(55.599999999999994 41.8)"/><use xlink:href="#P" transform="matrix(1,0,0,1,1086,517) translate(20.549999999999997 63.4)"/><path d="M1044 481v79h20" stroke="#999" stroke-width="2" fill="none"/><path d="M1045 481h-2v-1h2zM1065 561h-1v-2h1z" fill="#999"/><path d="M1065 645c0-2.76 2.24-5 5-5h134c2.76 0 5 2.24 5 5v98c0 2.76-2.24 5-5 5h-134c-2.76 0-5-2.24-5-5z" stroke="#666" stroke-width="2" fill="#c7e8ac"/><path d="M1081 657c0-2.76 2.24-5 5-5h134c2.76 0 5 2.24 5 5v98c0 2.76-2.24 5-5 5h-134c-2.76 0-5-2.24-5-5z" stroke="#666" stroke-width="2" fill="#c7e8ac"/><use xlink:href="#Q" transform="matrix(1,0,0,1,1086,657) translate(10.599999999999994 41.8)"/><use xlink:href="#O" transform="matrix(1,0,0,1,1086,657) translate(55.599999999999994 41.8)"/><use xlink:href="#R" transform="matrix(1,0,0,1,1086,657) translate(39.575 63.4)"/><path d="M1044 481v219h20" stroke="#999" stroke-width="2" fill="none"/><path d="M1045 481h-2v-1h2zM1065 701h-1v-2h1z" fill="#999"/><path d="M526 580h13.05c2.76 0 5-2.24 5-5V318.5" stroke="#999" stroke-width="2" fill="none"/><path d="M526 581h-1v-2h1z" fill="#999"/><path d="M544.05 303.24l4.64 14.26h-9.28z" stroke="#999" stroke-width="2" fill="#999"/><path d="M800 125c0-2.76 2.24-5 5-5h150c2.76 0 5 2.24 5 5v110c0 2.76-2.24 5-5 5H805c-2.76 0-5-2.24-5-5z" stroke="#666" stroke-width="2" fill="#ffeca9"/><g><use xlink:href="#S" transform="matrix(1,0,0,1,805,125) translate(19.474999999999994 58.6)"/><use xlink:href="#T" transform="matrix(1,0,0,1,805,125) translate(39.474999999999994 58.6)"/></g><path d="M625 1005c0-2.76 2.24-5 5-5h150c2.76 0 5 2.24 5 5v110c0 2.76-2.24 5-5 5H630c-2.76 0-5-2.24-5-5z" fill="#c7e8ac"/><path d="M630.96 1000h2m4.96 0h2m4.96 0h1.98m4.97 0h2m4.96 0h1.98m4.97 0h1.98m4.97 0h2m4.96 0h2m4.95 0h2m4.97 0h2m4.96 0h2m4.95 0h2m4.96 0h2m4.96 0h2m4.95 0h2m4.96 0h2m4.97 0h1.98m4.97 0h2m4.96 0h2m4.96 0h1.98m4.97 0h1.98m4.97 0h2m4.96 0h.5c.28 0 .5.22.5.5v.5m0 5.05v2.02m0 5.04v2.03m0 5.04v2m0 5.06v2m0 5.06v2m0 5.04v2.02m0 5.04v2.02m0 5.04v2.02m0 5.04v2.02m0 5.04v2.02m0 5.04v2.02m0 5.04v2m0 5.06v2m0 5.06v2m0 5.05v2.02m0 5.03v2.02m0 5.04v.5c0 .28-.22.5-.5.5h-.5m-4.96 0h-2m-4.96 0h-2m-4.96 0h-1.98m-4.97 0h-2m-4.96 0h-1.98m-4.97 0h-1.98m-4.97 0h-2m-4.96 0h-2m-4.95 0h-2m-4.97 0h-2m-4.96 0h-2m-4.95 0h-2m-4.96 0h-2m-4.96 0h-2m-4.95 0h-2m-4.96 0h-2m-4.97 0h-1.98m-4.97 0h-2m-4.96 0h-2m-4.96 0h-1.98m-4.97 0h-1.98m-4.97 0h-2m-4.96 0h-.5c-.28 0-.5-.22-.5-.5v-.5m0-5.05v-2.02m0-5.04v-2.03m0-5.04v-2m0-5.06v-2m0-5.06v-2m0-5.04v-2.02m0-5.04v-2.02m0-5.04v-2.02m0-5.04v-2.02m0-5.04v-2.02m0-5.04v-2.02m0-5.04v-2m0-5.06v-2m0-5.06v-2m0-5.05v-2.02m0-5.03v-2.02m0-5.04v-.5c0-.28.22-.5.5-.5h.5" stroke="#666" stroke-width="2" fill="none"/><g><use xlink:href="#U" transform="matrix(1,0,0,1,630,1005) translate(23.549999999999997 47.8)"/><use xlink:href="#V" transform="matrix(1,0,0,1,630,1005) translate(68.55 47.8)"/><use xlink:href="#W" transform="matrix(1,0,0,1,630,1005) translate(48.525 69.4)"/></g><path d="M604 481v579h21" stroke="#999" stroke-width="2" fill="none"/><path d="M605 481h-2v-1h2z" fill="#999"/><path fill="#999"/><path d="M625 1165c0-2.76 2.24-5 5-5h150c2.76 0 5 2.24 5 5v110c0 2.76-2.24 5-5 5H630c-2.76 0-5-2.24-5-5z" fill="#c7e8ac"/><path d="M630.96 1160h2m4.96 0h2m4.96 0h1.98m4.97 0h2m4.96 0h1.98m4.97 0h1.98m4.97 0h2m4.96 0h2m4.95 0h2m4.97 0h2m4.96 0h2m4.95 0h2m4.96 0h2m4.96 0h2m4.95 0h2m4.96 0h2m4.97 0h1.98m4.97 0h2m4.96 0h2m4.96 0h1.98m4.97 0h1.98m4.97 0h2m4.96 0h.5c.28 0 .5.22.5.5v.5m0 5.05v2.02m0 5.04v2.03m0 5.04v2m0 5.06v2m0 5.06v2m0 5.04v2.02m0 5.04v2.02m0 5.04v2.02m0 5.04v2.02m0 5.04v2.02m0 5.04v2.02m0 5.04v2m0 5.06v2m0 5.06v2m0 5.05v2.02m0 5.03v2.02m0 5.04v.5c0 .28-.22.5-.5.5h-.5m-4.96 0h-2m-4.96 0h-2m-4.96 0h-1.98m-4.97 0h-2m-4.96 0h-1.98m-4.97 0h-1.98m-4.97 0h-2m-4.96 0h-2m-4.95 0h-2m-4.97 0h-2m-4.96 0h-2m-4.95 0h-2m-4.96 0h-2m-4.96 0h-2m-4.95 0h-2m-4.96 0h-2m-4.97 0h-1.98m-4.97 0h-2m-4.96 0h-2m-4.96 0h-1.98m-4.97 0h-1.98m-4.97 0h-2m-4.96 0h-.5c-.28 0-.5-.22-.5-.5v-.5m0-5.05v-2.02m0-5.04v-2.03m0-5.04v-2m0-5.06v-2m0-5.06v-2m0-5.04v-2.02m0-5.04v-2.02m0-5.04v-2.02m0-5.04v-2.02m0-5.04v-2.02m0-5.04v-2.02m0-5.04v-2m0-5.06v-2m0-5.06v-2m0-5.05v-2.02m0-5.03v-2.02m0-5.04v-.5c0-.28.22-.5.5-.5h.5" stroke="#666" stroke-width="2" fill="none"/><g><use xlink:href="#X" transform="matrix(1,0,0,1,630,1165) translate(15.549999999999997 47.8)"/><use xlink:href="#Y" transform="matrix(1,0,0,1,630,1165) translate(60.55 47.8)"/><use xlink:href="#Z" transform="matrix(1,0,0,1,630,1165) translate(39.55 69.4)"/></g><path d="M604 481v739h21" stroke="#999" stroke-width="2" fill="none"/><path d="M605 481h-2v-1h2z" fill="#999"/><path fill="#999"/><path d="M225 360v-55c0-2.76 2.24-5 5-5h735" stroke="#999" stroke-width="2" fill="none"/><path d="M226 361h-2v-1h2z" fill="#999"/><path d="M1325 360v-55c0-2.76-2.24-5-5-5H965" stroke="#999" stroke-width="2" fill="none"/><path d="M1326 361h-2v-1h2z" fill="#999"/><path d="M445 359v-28.85c0-.36-.3-.65-.65-.65-.36 0-.65-.3-.65-.65V300" stroke="#999" stroke-width="2" fill="none"/><path d="M446 360h-2v-1h2z" fill="#999"/><path d="M665 359v-29.12c0-.2.17-.38.38-.38.2 0 .37-.17.37-.38V300" stroke="#999" stroke-width="2" fill="none"/><path d="M666 360h-2v-1h2z" fill="#999"/><path d="M885 360v-29.66c0-.2.15-.34.34-.34.18 0 .33-.15.33-.34V300" stroke="#999" stroke-width="2" fill="none"/><path d="M886 361h-2v-1h2z" fill="#999"/><path d="M1105 359v-29.2c0-.17.13-.3.3-.3.16 0 .3-.13.3-.3V300" stroke="#999" stroke-width="2" fill="none"/><path d="M1106 360h-2v-1h2z" fill="#999"/><path d="M880 241v28.94c0 .3.25.56.56.56.3 0 .56.25.56.56V300" stroke="#999" stroke-width="2" fill="none"/><path d="M881 241h-2v-1h2z" fill="#999"/><path d="M1455 365c0-2.76 2.24-5 5-5h150c2.76 0 5 2.24 5 5v110c0 2.76-2.24 5-5 5h-150c-2.76 0-5-2.24-5-5z" fill="#99d2f2"/><path d="M1460.96 360h2m4.96 0h2m4.96 0h1.98m4.97 0h2m4.96 0h1.98m4.97 0h1.98m4.97 0h2m4.96 0h2m4.95 0h2m4.97 0h2m4.96 0h2m4.95 0h2m4.96 0h2m4.96 0h2m4.95 0h2m4.96 0h2m4.97 0h1.98m4.97 0h2m4.96 0h2m4.96 0h1.98m4.97 0h1.98m4.97 0h2m4.96 0h.5c.28 0 .5.22.5.5v.5m0 5.05v2.02m0 5.04v2.03m0 5.04v2m0 5.06v2m0 5.06v2m0 5.04v2.02m0 5.04v2.02m0 5.04v2.02m0 5.04v2.02m0 5.04v2.02m0 5.04v2.02m0 5.04v2m0 5.06v2m0 5.06v2m0 5.05v2.02m0 5.03v2.02m0 5.04v.5c0 .28-.22.5-.5.5h-.5m-4.96 0h-2m-4.96 0h-2m-4.96 0h-1.98m-4.97 0h-2m-4.96 0h-1.98m-4.97 0h-1.98m-4.97 0h-2m-4.96 0h-2m-4.95 0h-2m-4.97 0h-2m-4.96 0h-2m-4.95 0h-2m-4.96 0h-2m-4.96 0h-2m-4.95 0h-2m-4.96 0h-2m-4.97 0h-1.98m-4.97 0h-2m-4.96 0h-2m-4.96 0h-1.98m-4.97 0h-1.98m-4.97 0h-2m-4.96 0h-.5c-.28 0-.5-.22-.5-.5v-.5m0-5.05v-2.02m0-5.04v-2.03m0-5.04v-2m0-5.06v-2m0-5.06v-2m0-5.04v-2.02m0-5.04v-2.02m0-5.04v-2.02m0-5.04v-2.02m0-5.04v-2.02m0-5.04v-2.02m0-5.04v-2m0-5.06v-2m0-5.06v-2m0-5.05v-2.02m0-5.03v-2.02m0-5.04v-.5c0-.28.22-.5.5-.5h.5" stroke="#666" stroke-width="2" fill="none"/><g><use xlink:href="#aa" transform="matrix(1,0,0,1,1460,365) translate(18.049999999999997 47.8)"/><use xlink:href="#ab" transform="matrix(1,0,0,1,1460,365) translate(48.05 47.8)"/><use xlink:href="#A" transform="matrix(1,0,0,1,1460,365) translate(111.95 47.8)"/><use xlink:href="#ac" transform="matrix(1,0,0,1,1460,365) translate(44.074999999999996 69.4)"/></g><path d="M1535 360v-53.6c0-2.75-2.24-5-5-5h-205" stroke="#999" stroke-width="2" fill="none"/><path fill="#999"/><defs><path fill="#333" d="M27 0v-27h64v-190l-56 39v-29l58-41h29v221h61V0H27" id="ad"/><path fill="#333" d="M33 0v-38h34V0H33" id="ae"/><path fill="#333" d="M101-251c82-7 93 87 43 132L82-64C71-53 59-42 53-27h129V0H18c2-99 128-94 128-182 0-28-16-43-45-43s-46 15-49 41l-32-3c6-41 34-60 81-64" id="af"/><g id="a"><use transform="matrix(0.05,0,0,0.05,0,0)" xlink:href="#ad"/><use transform="matrix(0.05,0,0,0.05,10,0)" xlink:href="#ae"/><use transform="matrix(0.05,0,0,0.05,15,0)" xlink:href="#af"/></g><path fill="#333" d="M33 0v-248h34V0H33" id="ag"/><path fill="#333" d="M117-194c89-4 53 116 60 194h-32v-121c0-31-8-49-39-48C34-167 62-67 57 0H25l-1-190h30c1 10-1 24 2 32 11-22 29-35 61-36" id="ah"/><path fill="#333" d="M24-231v-30h32v30H24zM24 0v-190h32V0H24" id="ai"/><path fill="#333" d="M96-169c-40 0-48 33-48 73s9 75 48 75c24 0 41-14 43-38l32 2c-6 37-31 61-74 61-59 0-76-41-82-99-10-93 101-131 147-64 4 7 5 14 7 22l-32 3c-4-21-16-35-41-35" id="aj"/><path fill="#333" d="M141-36C126-15 110 5 73 4 37 3 15-17 15-53c-1-64 63-63 125-63 3-35-9-54-41-54-24 1-41 7-42 31l-33-3c5-37 33-52 76-52 45 0 72 20 72 64v82c-1 20 7 32 28 27v20c-31 9-61-2-59-35zM48-53c0 20 12 33 32 33 41-3 63-29 60-74-43 2-92-5-92 41" id="ak"/><path fill="#333" d="M114-163C36-179 61-72 57 0H25l-1-190h30c1 12-1 29 2 39 6-27 23-49 58-41v29" id="al"/><g id="b"><use transform="matrix(0.05,0,0,0.05,0,0)" xlink:href="#ag"/><use transform="matrix(0.05,0,0,0.05,5,0)" xlink:href="#ah"/><use transform="matrix(0.05,0,0,0.05,15,0)" xlink:href="#ai"/><use transform="matrix(0.05,0,0,0.05,18.95,0)" xlink:href="#aj"/><use transform="matrix(0.05,0,0,0.05,27.950000000000003,0)" xlink:href="#ai"/><use transform="matrix(0.05,0,0,0.05,31.899999999999995,0)" xlink:href="#ak"/><use transform="matrix(0.05,0,0,0.05,41.9,0)" xlink:href="#al"/></g><path fill="#333" d="M135-143c-3-34-86-38-87 0 15 53 115 12 119 90S17 21 10-45l28-5c4 36 97 45 98 0-10-56-113-15-118-90-4-57 82-63 122-42 12 7 21 19 24 35" id="am"/><path fill="#333" d="M100-194c63 0 86 42 84 106H49c0 40 14 67 53 68 26 1 43-12 49-29l28 8c-11 28-37 45-77 45C44 4 14-33 15-96c1-61 26-98 85-98zm52 81c6-60-76-77-97-28-3 7-6 17-6 28h103" id="an"/><path fill="#333" d="M100-194c62-1 85 37 85 99 1 63-27 99-86 99S16-35 15-95c0-66 28-99 85-99zM99-20c44 1 53-31 53-75 0-43-8-75-51-75s-53 32-53 75 10 74 51 75zM76-211c8-23 27-35 38-54h36v5l-58 49H76" id="ao"/><g id="c"><use transform="matrix(0.05,0,0,0.05,0,0)" xlink:href="#am"/><use transform="matrix(0.05,0,0,0.05,9,0)" xlink:href="#an"/><use transform="matrix(0.05,0,0,0.05,19,0)" xlink:href="#am"/><use transform="matrix(0.05,0,0,0.05,28,0)" xlink:href="#ai"/><use transform="matrix(0.05,0,0,0.05,31.950000000000003,0)" xlink:href="#ao"/><use transform="matrix(0.05,0,0,0.05,41.95,0)" xlink:href="#ah"/></g><path fill="#333" d="M110-160c48 1 74 30 74 79 0 53-28 85-80 85-65 0-83-55-86-122-5-90 50-162 133-122 14 7 22 21 27 39l-31 6c-5-40-67-38-82-6-9 19-15 44-15 74 11-20 30-34 60-33zm-7 138c34 0 49-23 49-58s-16-56-50-56c-29 0-50 16-49 49 1 36 15 65 50 65" id="ap"/><g id="d"><use transform="matrix(0.05,0,0,0.05,0,0)" xlink:href="#ad"/><use transform="matrix(0.05,0,0,0.05,10,0)" xlink:href="#ae"/><use transform="matrix(0.05,0,0,0.05,15,0)" xlink:href="#ap"/></g><path fill="#333" d="M212-179c-10-28-35-45-73-45-59 0-87 40-87 99 0 60 29 101 89 101 43 0 62-24 78-52l27 14C228-24 195 4 139 4 59 4 22-46 18-125c-6-104 99-153 187-111 19 9 31 26 39 46" id="aq"/><path fill="#333" d="M100-194c62-1 85 37 85 99 1 63-27 99-86 99S16-35 15-95c0-66 28-99 85-99zM99-20c44 1 53-31 53-75 0-43-8-75-51-75s-53 32-53 75 10 74 51 75" id="ar"/><path fill="#333" d="M101-234c-31-9-42 10-38 44h38v23H63V0H32v-167H5v-23h27c-7-52 17-82 69-68v24" id="as"/><path fill="#333" d="M177-190C167-65 218 103 67 71c-23-6-38-20-44-43l32-5c15 47 100 32 89-28v-30C133-14 115 1 83 1 29 1 15-40 15-95c0-56 16-97 71-98 29-1 48 16 59 35 1-10 0-23 2-32h30zM94-22c36 0 50-32 50-73 0-42-14-75-50-75-39 0-46 34-46 75s6 73 46 73" id="at"/><path fill="#333" d="M84 4C-5 8 30-112 23-190h32v120c0 31 7 50 39 49 72-2 45-101 50-169h31l1 190h-30c-1-10 1-25-2-33-11 22-28 36-60 37" id="au"/><g id="e"><use transform="matrix(0.05,0,0,0.05,0,0)" xlink:href="#aq"/><use transform="matrix(0.05,0,0,0.05,12.950000000000001,0)" xlink:href="#ar"/><use transform="matrix(0.05,0,0,0.05,22.950000000000003,0)" xlink:href="#ah"/><use transform="matrix(0.05,0,0,0.05,32.95,0)" xlink:href="#as"/><use transform="matrix(0.05,0,0,0.05,37.95,0)" xlink:href="#ai"/><use transform="matrix(0.05,0,0,0.05,41.900000000000006,0)" xlink:href="#at"/><use transform="matrix(0.05,0,0,0.05,51.900000000000006,0)" xlink:href="#au"/><use transform="matrix(0.05,0,0,0.05,61.900000000000006,0)" xlink:href="#al"/><use transform="matrix(0.05,0,0,0.05,67.85000000000001,0)" xlink:href="#ak"/><use transform="matrix(0.05,0,0,0.05,77.85000000000001,0)" xlink:href="#aj"/><use transform="matrix(0.05,0,0,0.05,86.85000000000001,0)" xlink:href="#ai"/><use transform="matrix(0.05,0,0,0.05,90.80000000000001,0)" xlink:href="#ao"/><use transform="matrix(0.05,0,0,0.05,100.80000000000001,0)" xlink:href="#ah"/></g><path fill="#999" d="M230 0l2-204L168 0h-37L68-204 70 0H24v-248h70l56 185 57-185h69V0h-46" id="av"/><path fill="#999" d="M199 0l-22-63H83L61 0H9l90-248h61L250 0h-51zm-33-102l-36-108c-10 38-24 72-36 108h72" id="aw"/><path fill="#999" d="M24-248c93 1 206-16 204 79-1 75-69 88-152 82V0H24v-248zm52 121c47 0 100 7 100-41 0-47-54-39-100-39v80" id="ax"/><g id="f"><use transform="matrix(0.09876543209876544,0,0,0.09876543209876544,0,0)" xlink:href="#av"/><use transform="matrix(0.09876543209876544,0,0,0.09876543209876544,29.530864197530867,0)" xlink:href="#aw"/><use transform="matrix(0.09876543209876544,0,0,0.09876543209876544,55.111111111111114,0)" xlink:href="#ax"/><use transform="matrix(0.09876543209876544,0,0,0.09876543209876544,76.14814814814815,0)" xlink:href="#aw"/></g><path fill="#999" d="M24-248c120-7 223 5 221 122C244-46 201 0 124 0H24v-248zM76-40c74 7 117-18 117-86 0-67-45-88-117-82v168" id="ay"/><path fill="#999" d="M24 0v-248h195v40H76v63h132v40H76v65h150V0H24" id="az"/><g id="g"><use transform="matrix(0.09876543209876544,0,0,0.09876543209876544,0,0)" xlink:href="#ay"/><use transform="matrix(0.09876543209876544,0,0,0.09876543209876544,25.58024691358025,0)" xlink:href="#az"/></g><path fill="#999" d="M175 0L67-191c6 58 2 128 3 191H24v-248h59L193-55c-6-58-2-129-3-193h46V0h-61" id="aA"/><path fill="#999" d="M147 0H94L2-248h55l64 206c17-72 42-137 63-206h54" id="aB"/><path fill="#999" d="M67-125c0 54 23 88 75 88 28 0 53-7 68-21v-34h-60v-39h108v91C232-14 192 4 140 4 58 4 20-42 15-125 8-236 126-280 215-234c19 10 29 26 37 47l-47 15c-11-23-29-39-63-39-53 1-75 33-75 86" id="aC"/><path fill="#999" d="M67-125c0 53 21 87 73 88 37 1 54-22 65-47l45 17C233-25 199 4 140 4 58 4 20-42 15-125 8-235 124-281 211-232c18 10 29 29 36 50l-46 12c-8-25-30-41-62-41-52 0-71 34-72 86" id="aD"/><path fill="#999" d="M24 0v-248h52V0H24" id="aE"/><path fill="#999" d="M140-251c80 0 125 45 125 126S219 4 139 4C58 4 15-44 15-125s44-126 125-126zm-1 214c52 0 73-35 73-88 0-50-21-86-72-86-52 0-73 35-73 86s22 88 72 88" id="aF"/><g id="h"><use transform="matrix(0.09876543209876544,0,0,0.09876543209876544,0,0)" xlink:href="#aA"/><use transform="matrix(0.09876543209876544,0,0,0.09876543209876544,25.58024691358025,0)" xlink:href="#aw"/><use transform="matrix(0.09876543209876544,0,0,0.09876543209876544,48.49382716049384,0)" xlink:href="#aB"/><use transform="matrix(0.09876543209876544,0,0,0.09876543209876544,72.19753086419755,0)" xlink:href="#az"/><use transform="matrix(0.09876543209876544,0,0,0.09876543209876544,95.90123456790126,0)" xlink:href="#aC"/><use transform="matrix(0.09876543209876544,0,0,0.09876543209876544,123.55555555555557,0)" xlink:href="#aw"/><use transform="matrix(0.09876543209876544,0,0,0.09876543209876544,149.13580246913583,0)" xlink:href="#aD"/><use transform="matrix(0.09876543209876544,0,0,0.09876543209876544,174.71604938271608,0)" xlink:href="#aE"/><use transform="matrix(0.09876543209876544,0,0,0.09876543209876544,184.5925925925926,0)" xlink:href="#aF"/><use transform="matrix(0.09876543209876544,0,0,0.09876543209876544,212.24691358024694,0)" xlink:href="#aA"/></g><path fill="#999" d="M238-95c0 69-44 99-111 99C63 4 22-25 22-93v-155h51v151c-1 38 19 59 55 60 90 1 49-130 58-211h52v153" id="aG"/><path fill="#999" d="M182-130c37 4 62 22 62 59C244 23 116-4 24 0v-248c84 5 203-23 205 63 0 31-19 50-47 55zM76-148c40-3 101 13 101-30 0-44-60-28-101-31v61zm0 110c48-3 116 14 116-37 0-48-69-32-116-35v72" id="aH"/><path fill="#999" d="M195 0l-88-114-31 24V0H24v-248h52v113l112-113h60L142-143 257 0h-62" id="aI"/><path fill="#999" d="M136-208V0H84v-208H4v-40h212v40h-80" id="aJ"/><path fill="#999" d="M240-174c0 40-23 61-54 70L253 0h-59l-57-94H76V0H24v-248c93 4 217-23 216 74zM76-134c48-2 112 12 112-38 0-48-66-32-112-35v73" id="aK"/><g id="i"><use transform="matrix(0.09876543209876544,0,0,0.09876543209876544,0,0)" xlink:href="#aD"/><use transform="matrix(0.09876543209876544,0,0,0.09876543209876544,25.58024691358025,0)" xlink:href="#aG"/><use transform="matrix(0.09876543209876544,0,0,0.09876543209876544,51.1604938271605,0)" xlink:href="#aH"/><use transform="matrix(0.09876543209876544,0,0,0.09876543209876544,76.74074074074075,0)" xlink:href="#aE"/><use transform="matrix(0.09876543209876544,0,0,0.09876543209876544,86.61728395061729,0)" xlink:href="#aI"/><use transform="matrix(0.09876543209876544,0,0,0.09876543209876544,112.19753086419755,0)" xlink:href="#aJ"/><use transform="matrix(0.09876543209876544,0,0,0.09876543209876544,133.82716049382717,0)" xlink:href="#aE"/><use transform="matrix(0.09876543209876544,0,0,0.09876543209876544,143.7037037037037,0)" xlink:href="#av"/><use transform="matrix(0.09876543209876544,0,0,0.09876543209876544,173.23456790123456,0)" xlink:href="#az"/><use transform="matrix(0.09876543209876544,0,0,0.09876543209876544,196.93827160493825,0)" xlink:href="#aK"/></g><path fill="#999" d="M190 0L58-211 59 0H30v-248h39L202-35l-2-213h31V0h-41" id="aL"/><path fill="#999" d="M100-194c63 0 86 42 84 106H49c0 40 14 67 53 68 26 1 43-12 49-29l28 8c-11 28-37 45-77 45C44 4 14-33 15-96c1-61 26-98 85-98zm52 81c6-60-76-77-97-28-3 7-6 17-6 28h103" id="aM"/><path fill="#999" d="M24 0v-261h32V0H24" id="aN"/><path fill="#999" d="M135-143c-3-34-86-38-87 0 15 53 115 12 119 90S17 21 10-45l28-5c4 36 97 45 98 0-10-56-113-15-118-90-4-57 82-63 122-42 12 7 21 19 24 35" id="aO"/><path fill="#999" d="M100-194c62-1 85 37 85 99 1 63-27 99-86 99S16-35 15-95c0-66 28-99 85-99zM99-20c44 1 53-31 53-75 0-43-8-75-51-75s-53 32-53 75 10 74 51 75" id="aP"/><path fill="#999" d="M117-194c89-4 53 116 60 194h-32v-121c0-31-8-49-39-48C34-167 62-67 57 0H25l-1-190h30c1 10-1 24 2 32 11-22 29-35 61-36" id="aQ"/><g id="j"><use transform="matrix(0.06172839506172778,0,0,0.06172839506172778,0,0)" xlink:href="#aL"/><use transform="matrix(0.06172839506172778,0,0,0.06172839506172778,15.987654320987495,0)" xlink:href="#aM"/><use transform="matrix(0.06172839506172778,0,0,0.06172839506172778,28.33333333333305,0)" xlink:href="#aN"/><use transform="matrix(0.06172839506172778,0,0,0.06172839506172778,33.209876543209546,0)" xlink:href="#aO"/><use transform="matrix(0.06172839506172778,0,0,0.06172839506172778,44.32098765432055,0)" xlink:href="#aP"/><use transform="matrix(0.06172839506172778,0,0,0.06172839506172778,56.6666666666661,0)" xlink:href="#aQ"/></g><path fill="#999" d="M205 0l-28-72H64L36 0H1l101-248h38L239 0h-34zm-38-99l-47-123c-12 45-31 82-46 123h93" id="aR"/><path fill="#999" d="M114-163C36-179 61-72 57 0H25l-1-190h30c1 12-1 29 2 39 6-27 23-49 58-41v29" id="aS"/><path fill="#999" d="M24-231v-30h32v30H24zM24 0v-190h32V0H24" id="aT"/><path fill="#999" d="M9 0v-24l116-142H16v-24h144v24L44-24h123V0H9" id="aU"/><path fill="#999" d="M141-36C126-15 110 5 73 4 37 3 15-17 15-53c-1-64 63-63 125-63 3-35-9-54-41-54-24 1-41 7-42 31l-33-3c5-37 33-52 76-52 45 0 72 20 72 64v82c-1 20 7 32 28 27v20c-31 9-61-2-59-35zM48-53c0 20 12 33 32 33 41-3 63-29 60-74-43 2-92-5-92 41" id="aV"/><g id="k"><use transform="matrix(0.06172839506172778,0,0,0.06172839506172778,0,0)" xlink:href="#aR"/><use transform="matrix(0.06172839506172778,0,0,0.06172839506172778,14.814814814814667,0)" xlink:href="#aS"/><use transform="matrix(0.06172839506172778,0,0,0.06172839506172778,22.160493827160273,0)" xlink:href="#aT"/><use transform="matrix(0.06172839506172778,0,0,0.06172839506172778,27.037037037036768,0)" xlink:href="#aU"/><use transform="matrix(0.06172839506172778,0,0,0.06172839506172778,38.14814814814777,0)" xlink:href="#aV"/></g><path fill="#999" d="M32 76v-337h29V76H32" id="aW"/><use transform="matrix(0.06172839506172778,0,0,0.06172839506172778,0,0)" xlink:href="#aW" id="l"/><g id="m"><use transform="matrix(0.05,0,0,0.05,0,0)" xlink:href="#ad"/><use transform="matrix(0.05,0,0,0.05,10,0)" xlink:href="#ae"/><use transform="matrix(0.05,0,0,0.05,15,0)" xlink:href="#ad"/></g><path fill="#333" d="M233-177c-1 41-23 64-60 70L243 0h-38l-65-103H63V0H30v-248c88 3 205-21 203 71zM63-129c60-2 137 13 137-47 0-61-80-42-137-45v92" id="aX"/><path fill="#333" d="M59-47c-2 24 18 29 38 22v24C64 9 27 4 27-40v-127H5v-23h24l9-43h21v43h35v23H59v120" id="aY"/><g id="n"><use transform="matrix(0.05,0,0,0.05,0,0)" xlink:href="#aX"/><use transform="matrix(0.05,0,0,0.05,12.950000000000001,0)" xlink:href="#an"/><use transform="matrix(0.05,0,0,0.05,22.950000000000003,0)" xlink:href="#at"/><use transform="matrix(0.05,0,0,0.05,32.95,0)" xlink:href="#ai"/><use transform="matrix(0.05,0,0,0.05,36.900000000000006,0)" xlink:href="#am"/><use transform="matrix(0.05,0,0,0.05,45.900000000000006,0)" xlink:href="#aY"/><use transform="matrix(0.05,0,0,0.05,50.900000000000006,0)" xlink:href="#al"/><use transform="matrix(0.05,0,0,0.05,56.85,0)" xlink:href="#ak"/><use transform="matrix(0.05,0,0,0.05,66.85000000000001,0)" xlink:href="#al"/><use transform="matrix(0.05,0,0,0.05,72.80000000000001,0)" xlink:href="#am"/><use transform="matrix(0.05,0,0,0.05,81.80000000000001,0)" xlink:href="#an"/></g><g id="o"><use transform="matrix(0.05,0,0,0.05,0,0)" xlink:href="#ad"/><use transform="matrix(0.05,0,0,0.05,10,0)" xlink:href="#ae"/><use transform="matrix(0.05,0,0,0.05,15,0)" xlink:href="#af"/><use transform="matrix(0.05,0,0,0.05,25,0)" xlink:href="#ae"/><use transform="matrix(0.05,0,0,0.05,30,0)" xlink:href="#ad"/></g><path fill="#333" d="M85-194c31 0 48 13 60 33l-1-100h32l1 261h-30c-2-10 0-23-3-31C134-8 116 4 85 4 32 4 16-35 15-94c0-66 23-100 70-100zm9 24c-40 0-46 34-46 75 0 40 6 74 45 74 42 0 51-32 51-76 0-42-9-74-50-73" id="aZ"/><g id="p"><use transform="matrix(0.05,0,0,0.05,0,0)" xlink:href="#aX"/><use transform="matrix(0.05,0,0,0.05,12.950000000000001,0)" xlink:href="#an"/><use transform="matrix(0.05,0,0,0.05,22.950000000000003,0)" xlink:href="#aj"/><use transform="matrix(0.05,0,0,0.05,31.950000000000003,0)" xlink:href="#ar"/><use transform="matrix(0.05,0,0,0.05,41.95,0)" xlink:href="#al"/><use transform="matrix(0.05,0,0,0.05,47.900000000000006,0)" xlink:href="#aZ"/><use transform="matrix(0.05,0,0,0.05,57.900000000000006,0)" xlink:href="#ak"/><use transform="matrix(0.05,0,0,0.05,67.9,0)" xlink:href="#al"/></g><path fill="#333" d="M24 0v-261h32V0H24" id="ba"/><path fill="#333" d="M108 0H70L1-190h34L89-25l56-165h34" id="bb"/><g id="q"><use transform="matrix(0.05,0,0,0.05,0,0)" xlink:href="#aj"/><use transform="matrix(0.05,0,0,0.05,9,0)" xlink:href="#ba"/><use transform="matrix(0.05,0,0,0.05,12.949999999999998,0)" xlink:href="#ak"/><use transform="matrix(0.05,0,0,0.05,22.95,0)" xlink:href="#bb"/><use transform="matrix(0.05,0,0,0.05,31.950000000000003,0)" xlink:href="#an"/></g><g id="r"><use transform="matrix(0.05,0,0,0.05,0,0)" xlink:href="#ad"/><use transform="matrix(0.05,0,0,0.05,10,0)" xlink:href="#ae"/><use transform="matrix(0.05,0,0,0.05,15,0)" xlink:href="#af"/><use transform="matrix(0.05,0,0,0.05,25,0)" xlink:href="#ae"/><use transform="matrix(0.05,0,0,0.05,30,0)" xlink:href="#af"/></g><g id="s"><use transform="matrix(0.05,0,0,0.05,0,0)" xlink:href="#au"/><use transform="matrix(0.05,0,0,0.05,10,0)" xlink:href="#am"/><use transform="matrix(0.05,0,0,0.05,19,0)" xlink:href="#au"/><use transform="matrix(0.05,0,0,0.05,29,0)" xlink:href="#ak"/><use transform="matrix(0.05,0,0,0.05,39,0)" xlink:href="#al"/><use transform="matrix(0.05,0,0,0.05,44.95,0)" xlink:href="#ai"/><use transform="matrix(0.05,0,0,0.05,48.900000000000006,0)" xlink:href="#ar"/></g><path fill="#333" d="M155-56V0h-30v-56H8v-25l114-167h33v167h35v25h-35zm-30-156c-27 46-58 90-88 131h88v-131" id="bc"/><g id="t"><use transform="matrix(0.05,0,0,0.05,0,0)" xlink:href="#ad"/><use transform="matrix(0.05,0,0,0.05,10,0)" xlink:href="#ae"/><use transform="matrix(0.05,0,0,0.05,15,0)" xlink:href="#bc"/></g><path fill="#333" d="M205 0l-28-72H64L36 0H1l101-248h38L239 0h-34zm-38-99l-47-123c-12 45-31 82-46 123h93" id="bd"/><path fill="#333" d="M210-169c-67 3-38 105-44 169h-31v-121c0-29-5-50-35-48C34-165 62-65 56 0H25l-1-190h30c1 10-1 24 2 32 10-44 99-50 107 0 11-21 27-35 58-36 85-2 47 119 55 194h-31v-121c0-29-5-49-35-48" id="be"/><g id="u"><use transform="matrix(0.05,0,0,0.05,0,0)" xlink:href="#bd"/><use transform="matrix(0.05,0,0,0.05,12,0)" xlink:href="#be"/><use transform="matrix(0.05,0,0,0.05,26.950000000000003,0)" xlink:href="#ai"/><use transform="matrix(0.05,0,0,0.05,30.900000000000002,0)" xlink:href="#at"/><use transform="matrix(0.05,0,0,0.05,40.900000000000006,0)" xlink:href="#ar"/><use transform="matrix(0.05,0,0,0.05,50.900000000000006,0)" xlink:href="#am"/></g><g id="v"><use transform="matrix(0.05,0,0,0.05,0,0)" xlink:href="#ad"/><use transform="matrix(0.05,0,0,0.05,10,0)" xlink:href="#ae"/><use transform="matrix(0.05,0,0,0.05,15,0)" xlink:href="#bc"/><use transform="matrix(0.05,0,0,0.05,25,0)" xlink:href="#ae"/><use transform="matrix(0.05,0,0,0.05,30,0)" xlink:href="#ad"/></g><g id="w"><use transform="matrix(0.05,0,0,0.05,0,0)" xlink:href="#ag"/><use transform="matrix(0.05,0,0,0.05,5,0)" xlink:href="#ah"/><use transform="matrix(0.05,0,0,0.05,15,0)" xlink:href="#bb"/><use transform="matrix(0.05,0,0,0.05,24,0)" xlink:href="#ai"/><use transform="matrix(0.05,0,0,0.05,27.950000000000003,0)" xlink:href="#aY"/><use transform="matrix(0.05,0,0,0.05,32.95,0)" xlink:href="#ak"/><use transform="matrix(0.05,0,0,0.05,42.95,0)" xlink:href="#al"/></g><g id="x"><use transform="matrix(0.05,0,0,0.05,0,0)" xlink:href="#ad"/><use transform="matrix(0.05,0,0,0.05,10,0)" xlink:href="#ae"/><use transform="matrix(0.05,0,0,0.05,15,0)" xlink:href="#bc"/><use transform="matrix(0.05,0,0,0.05,25,0)" xlink:href="#ae"/><use transform="matrix(0.05,0,0,0.05,30,0)" xlink:href="#af"/></g><path fill="#333" d="M143 4C61 4 22-44 18-125c-5-107 100-154 193-111 17 8 29 25 37 43l-32 9c-13-25-37-40-76-40-61 0-88 39-88 99 0 61 29 100 91 101 35 0 62-11 79-27v-45h-74v-28h105v86C228-13 192 4 143 4" id="bf"/><g id="y"><use transform="matrix(0.05,0,0,0.05,0,0)" xlink:href="#bf"/><use transform="matrix(0.05,0,0,0.05,14,0)" xlink:href="#an"/><use transform="matrix(0.05,0,0,0.05,24,0)" xlink:href="#am"/><use transform="matrix(0.05,0,0,0.05,33,0)" xlink:href="#aY"/><use transform="matrix(0.05,0,0,0.05,38,0)" xlink:href="#ai"/><use transform="matrix(0.05,0,0,0.05,41.95,0)" xlink:href="#ar"/><use transform="matrix(0.05,0,0,0.05,51.95,0)" xlink:href="#ah"/><use transform="matrix(0.05,0,0,0.05,61.95,0)" xlink:href="#ak"/><use transform="matrix(0.05,0,0,0.05,71.95,0)" xlink:href="#al"/></g><path fill="#333" d="M185-189c-5-48-123-54-124 2 14 75 158 14 163 119 3 78-121 87-175 55-17-10-28-26-33-46l33-7c5 56 141 63 141-1 0-78-155-14-162-118-5-82 145-84 179-34 5 7 8 16 11 25" id="bg"/><g id="z"><use transform="matrix(0.05,0,0,0.05,0,0)" xlink:href="#bg"/><use transform="matrix(0.05,0,0,0.05,12,0)" xlink:href="#ar"/><use transform="matrix(0.05,0,0,0.05,22,0)" xlink:href="#ba"/><use transform="matrix(0.05,0,0,0.05,25.950000000000003,0)" xlink:href="#ai"/><use transform="matrix(0.05,0,0,0.05,29.899999999999995,0)" xlink:href="#aj"/><use transform="matrix(0.05,0,0,0.05,38.9,0)" xlink:href="#ai"/><use transform="matrix(0.05,0,0,0.05,42.85,0)" xlink:href="#aY"/><use transform="matrix(0.05,0,0,0.05,47.85,0)" xlink:href="#au"/><use transform="matrix(0.05,0,0,0.05,57.85,0)" xlink:href="#aZ"/><use transform="matrix(0.05,0,0,0.05,67.85,0)" xlink:href="#an"/><use transform="matrix(0.05,0,0,0.05,77.85,0)" xlink:href="#am"/></g><g id="A"><use transform="matrix(0.05,0,0,0.05,0,0)" xlink:href="#aZ"/><use transform="matrix(0.05,0,0,0.05,10,0)" xlink:href="#an"/></g><g id="B"><use transform="matrix(0.05,0,0,0.05,0,0)" xlink:href="#bd"/><use transform="matrix(0.05,0,0,0.05,12,0)" xlink:href="#be"/><use transform="matrix(0.05,0,0,0.05,26.950000000000003,0)" xlink:href="#ai"/><use transform="matrix(0.05,0,0,0.05,30.900000000000002,0)" xlink:href="#am"/><use transform="matrix(0.05,0,0,0.05,39.900000000000006,0)" xlink:href="#aY"/><use transform="matrix(0.05,0,0,0.05,44.900000000000006,0)" xlink:href="#ak"/><use transform="matrix(0.05,0,0,0.05,54.900000000000006,0)" xlink:href="#aZ"/></g><path fill="#333" d="M126-127c33 6 58 20 58 59 0 88-139 92-164 29-3-8-5-16-6-25l32-3c6 27 21 44 54 44 32 0 52-15 52-46 0-38-36-46-79-43v-28c39 1 72-4 72-42 0-27-17-43-46-43-28 0-47 15-49 41l-32-3c6-42 35-63 81-64 48-1 79 21 79 65 0 36-21 52-52 59" id="bh"/><g id="C"><use transform="matrix(0.05,0,0,0.05,0,0)" xlink:href="#ad"/><use transform="matrix(0.05,0,0,0.05,10,0)" xlink:href="#ae"/><use transform="matrix(0.05,0,0,0.05,15,0)" xlink:href="#bc"/><use transform="matrix(0.05,0,0,0.05,25,0)" xlink:href="#ae"/><use transform="matrix(0.05,0,0,0.05,30,0)" xlink:href="#bh"/></g><g id="D"><use transform="matrix(0.05,0,0,0.05,0,0)" xlink:href="#ad"/><use transform="matrix(0.05,0,0,0.05,10,0)" xlink:href="#ae"/><use transform="matrix(0.05,0,0,0.05,15,0)" xlink:href="#bh"/></g><path fill="#333" d="M115-194c53 0 69 39 70 98 0 66-23 100-70 100C84 3 66-7 56-30L54 0H23l1-261h32v101c10-23 28-34 59-34zm-8 174c40 0 45-34 45-75 0-40-5-75-45-74-42 0-51 32-51 76 0 43 10 73 51 73" id="bi"/><path fill="#333" d="M143 0L79-87 56-68V0H24v-261h32v163l83-92h37l-77 82L181 0h-38" id="bj"/><g id="E"><use transform="matrix(0.05,0,0,0.05,0,0)" xlink:href="#aX"/><use transform="matrix(0.05,0,0,0.05,12.950000000000001,0)" xlink:href="#au"/><use transform="matrix(0.05,0,0,0.05,22.950000000000003,0)" xlink:href="#bi"/><use transform="matrix(0.05,0,0,0.05,32.95,0)" xlink:href="#ai"/><use transform="matrix(0.05,0,0,0.05,36.900000000000006,0)" xlink:href="#bj"/></g><g id="F"><use transform="matrix(0.05,0,0,0.05,0,0)" xlink:href="#ad"/><use transform="matrix(0.05,0,0,0.05,10,0)" xlink:href="#ae"/><use transform="matrix(0.05,0,0,0.05,15,0)" xlink:href="#bh"/><use transform="matrix(0.05,0,0,0.05,25,0)" xlink:href="#ae"/><use transform="matrix(0.05,0,0,0.05,30,0)" xlink:href="#ad"/></g><g id="G"><use transform="matrix(0.05,0,0,0.05,0,0)" xlink:href="#aq"/><use transform="matrix(0.05,0,0,0.05,12.950000000000001,0)" xlink:href="#al"/><use transform="matrix(0.05,0,0,0.05,18.900000000000002,0)" xlink:href="#ar"/><use transform="matrix(0.05,0,0,0.05,28.900000000000002,0)" xlink:href="#ah"/><use transform="matrix(0.05,0,0,0.05,38.900000000000006,0)" xlink:href="#ar"/><use transform="matrix(0.05,0,0,0.05,48.900000000000006,0)" xlink:href="#be"/><use transform="matrix(0.05,0,0,0.05,63.85,0)" xlink:href="#an"/><use transform="matrix(0.05,0,0,0.05,73.85000000000001,0)" xlink:href="#aY"/><use transform="matrix(0.05,0,0,0.05,78.85000000000001,0)" xlink:href="#al"/><use transform="matrix(0.05,0,0,0.05,84.80000000000001,0)" xlink:href="#ar"/></g><g id="H"><use transform="matrix(0.05,0,0,0.05,0,0)" xlink:href="#ad"/><use transform="matrix(0.05,0,0,0.05,10,0)" xlink:href="#ae"/><use transform="matrix(0.05,0,0,0.05,15,0)" xlink:href="#bh"/><use transform="matrix(0.05,0,0,0.05,25,0)" xlink:href="#ae"/><use transform="matrix(0.05,0,0,0.05,30,0)" xlink:href="#af"/></g><path fill="#333" d="M30 0v-248h187v28H63v79h144v27H63v87h162V0H30" id="bk"/><path fill="#333" d="M34 0v-190h32V0H34zM24-211c8-23 27-35 38-54h36v5l-58 49H24" id="bl"/><g id="I"><use transform="matrix(0.05,0,0,0.05,0,0)" xlink:href="#bk"/><use transform="matrix(0.05,0,0,0.05,12,0)" xlink:href="#am"/><use transform="matrix(0.05,0,0,0.05,21,0)" xlink:href="#aY"/><use transform="matrix(0.05,0,0,0.05,26,0)" xlink:href="#ak"/><use transform="matrix(0.05,0,0,0.05,36,0)" xlink:href="#aZ"/><use transform="matrix(0.05,0,0,0.05,46,0)" xlink:href="#bl"/><use transform="matrix(0.05,0,0,0.05,51,0)" xlink:href="#am"/><use transform="matrix(0.05,0,0,0.05,60,0)" xlink:href="#aY"/><use transform="matrix(0.05,0,0,0.05,65,0)" xlink:href="#ai"/><use transform="matrix(0.05,0,0,0.05,68.95,0)" xlink:href="#aj"/><use transform="matrix(0.05,0,0,0.05,77.95,0)" xlink:href="#ak"/><use transform="matrix(0.05,0,0,0.05,87.95,0)" xlink:href="#am"/></g><g id="J"><use transform="matrix(0.05,0,0,0.05,0,0)" xlink:href="#ad"/><use transform="matrix(0.05,0,0,0.05,10,0)" xlink:href="#ae"/><use transform="matrix(0.05,0,0,0.05,15,0)" xlink:href="#bh"/><use transform="matrix(0.05,0,0,0.05,25,0)" xlink:href="#ae"/><use transform="matrix(0.05,0,0,0.05,30,0)" xlink:href="#bh"/></g><path fill="#333" d="M115-194c55 1 70 41 70 98S169 2 115 4C84 4 66-9 55-30l1 105H24l-1-265h31l2 30c10-21 28-34 59-34zm-8 174c40 0 45-34 45-75s-6-73-45-74c-42 0-51 32-51 76 0 43 10 73 51 73" id="bm"/><g id="K"><use transform="matrix(0.05,0,0,0.05,0,0)" xlink:href="#aq"/><use transform="matrix(0.05,0,0,0.05,12.950000000000001,0)" xlink:href="#ar"/><use transform="matrix(0.05,0,0,0.05,22.950000000000003,0)" xlink:href="#be"/><use transform="matrix(0.05,0,0,0.05,37.900000000000006,0)" xlink:href="#bm"/><use transform="matrix(0.05,0,0,0.05,47.900000000000006,0)" xlink:href="#ak"/><use transform="matrix(0.05,0,0,0.05,57.900000000000006,0)" xlink:href="#al"/><use transform="matrix(0.05,0,0,0.05,63.85,0)" xlink:href="#ak"/><use transform="matrix(0.05,0,0,0.05,73.85000000000001,0)" xlink:href="#al"/></g><path fill="#333" d="M54-142c48-35 137-8 131 61C196 18 31 33 14-55l32-4c7 23 22 37 52 37 35-1 51-22 54-58 4-55-73-65-99-34H22l8-134h141v27H59" id="bn"/><g id="L"><use transform="matrix(0.05,0,0,0.05,0,0)" xlink:href="#ad"/><use transform="matrix(0.05,0,0,0.05,10,0)" xlink:href="#ae"/><use transform="matrix(0.05,0,0,0.05,15,0)" xlink:href="#bn"/></g><path fill="#333" d="M30-248c87 1 191-15 191 75 0 78-77 80-158 76V0H30v-248zm33 125c57 0 124 11 124-50 0-59-68-47-124-48v98" id="bo"/><g id="M"><use transform="matrix(0.05,0,0,0.05,0,0)" xlink:href="#bo"/><use transform="matrix(0.05,0,0,0.05,12,0)" xlink:href="#an"/><use transform="matrix(0.05,0,0,0.05,22,0)" xlink:href="#al"/><use transform="matrix(0.05,0,0,0.05,27.950000000000003,0)" xlink:href="#as"/><use transform="matrix(0.05,0,0,0.05,32.95,0)" xlink:href="#ai"/><use transform="matrix(0.05,0,0,0.05,36.900000000000006,0)" xlink:href="#ba"/></g><g id="N"><use transform="matrix(0.05,0,0,0.05,0,0)" xlink:href="#ad"/><use transform="matrix(0.05,0,0,0.05,10,0)" xlink:href="#ae"/><use transform="matrix(0.05,0,0,0.05,15,0)" xlink:href="#bn"/><use transform="matrix(0.05,0,0,0.05,25,0)" xlink:href="#ae"/><use transform="matrix(0.05,0,0,0.05,30,0)" xlink:href="#ad"/></g><g id="O"><use transform="matrix(0.05,0,0,0.05,0,0)" xlink:href="#aq"/><use transform="matrix(0.05,0,0,0.05,12.950000000000001,0)" xlink:href="#ak"/><use transform="matrix(0.05,0,0,0.05,22.950000000000003,0)" xlink:href="#be"/><use transform="matrix(0.05,0,0,0.05,37.900000000000006,0)" xlink:href="#bi"/><use transform="matrix(0.05,0,0,0.05,47.900000000000006,0)" xlink:href="#ai"/><use transform="matrix(0.05,0,0,0.05,51.85,0)" xlink:href="#ak"/><use transform="matrix(0.05,0,0,0.05,61.85,0)" xlink:href="#al"/></g><path fill="#333" d="M118-194c89-4 53 116 60 194h-32v-121c0-31-8-49-39-48C35-167 63-67 58 0H26l-1-190h30c1 10-1 24 2 32 11-22 29-35 61-36zm47-64c-3 23-9 48-36 47-26-1-65-44-74 0H39c4-23 8-48 36-47s64 44 74 0h16" id="bp"/><g id="P"><use transform="matrix(0.05,0,0,0.05,0,0)" xlink:href="#aq"/><use transform="matrix(0.05,0,0,0.05,12.950000000000001,0)" xlink:href="#ar"/><use transform="matrix(0.05,0,0,0.05,22.950000000000003,0)" xlink:href="#ah"/><use transform="matrix(0.05,0,0,0.05,32.95,0)" xlink:href="#aY"/><use transform="matrix(0.05,0,0,0.05,37.95,0)" xlink:href="#al"/><use transform="matrix(0.05,0,0,0.05,43.900000000000006,0)" xlink:href="#ak"/><use transform="matrix(0.05,0,0,0.05,53.900000000000006,0)" xlink:href="#am"/><use transform="matrix(0.05,0,0,0.05,62.900000000000006,0)" xlink:href="#an"/><use transform="matrix(0.05,0,0,0.05,72.9,0)" xlink:href="#bp"/><use transform="matrix(0.05,0,0,0.05,82.9,0)" xlink:href="#ak"/></g><g id="Q"><use transform="matrix(0.05,0,0,0.05,0,0)" xlink:href="#ad"/><use transform="matrix(0.05,0,0,0.05,10,0)" xlink:href="#ae"/><use transform="matrix(0.05,0,0,0.05,15,0)" xlink:href="#bn"/><use transform="matrix(0.05,0,0,0.05,25,0)" xlink:href="#ae"/><use transform="matrix(0.05,0,0,0.05,30,0)" xlink:href="#af"/></g><g id="R"><use transform="matrix(0.05,0,0,0.05,0,0)" xlink:href="#aq"/><use transform="matrix(0.05,0,0,0.05,12.950000000000001,0)" xlink:href="#ar"/><use transform="matrix(0.05,0,0,0.05,22.950000000000003,0)" xlink:href="#al"/><use transform="matrix(0.05,0,0,0.05,28.900000000000002,0)" xlink:href="#al"/><use transform="matrix(0.05,0,0,0.05,34.85,0)" xlink:href="#an"/><use transform="matrix(0.05,0,0,0.05,44.85,0)" xlink:href="#ar"/></g><g id="S"><use transform="matrix(0.05,0,0,0.05,0,0)" xlink:href="#ad"/><use transform="matrix(0.05,0,0,0.05,10,0)" xlink:href="#ae"/></g><path fill="#333" d="M127-220V0H93v-220H8v-28h204v28h-85" id="bq"/><g id="T"><use transform="matrix(0.05,0,0,0.05,0,0)" xlink:href="#aq"/><use transform="matrix(0.05,0,0,0.05,12.950000000000001,0)" xlink:href="#au"/><use transform="matrix(0.05,0,0,0.05,22.950000000000003,0)" xlink:href="#bi"/><use transform="matrix(0.05,0,0,0.05,32.95,0)" xlink:href="#ai"/><use transform="matrix(0.05,0,0,0.05,36.900000000000006,0)" xlink:href="#bj"/><use transform="matrix(0.05,0,0,0.05,45.900000000000006,0)" xlink:href="#bq"/><use transform="matrix(0.05,0,0,0.05,56.20000000000002,0)" xlink:href="#ai"/><use transform="matrix(0.05,0,0,0.05,60.15000000000001,0)" xlink:href="#be"/><use transform="matrix(0.05,0,0,0.05,75.10000000000001,0)" xlink:href="#an"/><use transform="matrix(0.05,0,0,0.05,85.10000000000001,0)" xlink:href="#al"/></g><g id="U"><use transform="matrix(0.05,0,0,0.05,0,0)" xlink:href="#ad"/><use transform="matrix(0.05,0,0,0.05,10,0)" xlink:href="#ae"/><use transform="matrix(0.05,0,0,0.05,15,0)" xlink:href="#bh"/><use transform="matrix(0.05,0,0,0.05,25,0)" xlink:href="#ae"/><use transform="matrix(0.05,0,0,0.05,30,0)" xlink:href="#bc"/></g><path fill="#333" d="M63-220v92h138v28H63V0H30v-248h175v28H63" id="br"/><path fill="#333" d="M206 0h-36l-40-164L89 0H53L-1-190h32L70-26l43-164h34l41 164 42-164h31" id="bs"/><g id="V"><use transform="matrix(0.05,0,0,0.05,0,0)" xlink:href="#br"/><use transform="matrix(0.05,0,0,0.05,10.950000000000001,0)" xlink:href="#an"/><use transform="matrix(0.05,0,0,0.05,20.950000000000003,0)" xlink:href="#bs"/><use transform="matrix(0.05,0,0,0.05,33.900000000000006,0)" xlink:href="#an"/><use transform="matrix(0.05,0,0,0.05,43.900000000000006,0)" xlink:href="#am"/><use transform="matrix(0.05,0,0,0.05,52.900000000000006,0)" xlink:href="#aY"/></g><path fill="#333" d="M240 0l2-218c-23 76-54 145-80 218h-23L58-218 59 0H30v-248h44l77 211c21-75 51-140 76-211h43V0h-30" id="bt"/><g id="W"><use transform="matrix(0.05,0,0,0.05,0,0)" xlink:href="#bt"/><use transform="matrix(0.05,0,0,0.05,14.950000000000001,0)" xlink:href="#ar"/><use transform="matrix(0.05,0,0,0.05,24.950000000000003,0)" xlink:href="#bb"/><use transform="matrix(0.05,0,0,0.05,33.95,0)" xlink:href="#an"/><use transform="matrix(0.05,0,0,0.05,43.95,0)" xlink:href="#am"/></g><g id="X"><use transform="matrix(0.05,0,0,0.05,0,0)" xlink:href="#ad"/><use transform="matrix(0.05,0,0,0.05,10,0)" xlink:href="#ae"/><use transform="matrix(0.05,0,0,0.05,15,0)" xlink:href="#bh"/><use transform="matrix(0.05,0,0,0.05,25,0)" xlink:href="#ae"/><use transform="matrix(0.05,0,0,0.05,30,0)" xlink:href="#bn"/></g><g id="Y"><use transform="matrix(0.05,0,0,0.05,0,0)" xlink:href="#bd"/><use transform="matrix(0.05,0,0,0.05,12,0)" xlink:href="#bm"/><use transform="matrix(0.05,0,0,0.05,22,0)" xlink:href="#al"/><use transform="matrix(0.05,0,0,0.05,27.950000000000003,0)" xlink:href="#an"/><use transform="matrix(0.05,0,0,0.05,37.95,0)" xlink:href="#ah"/><use transform="matrix(0.05,0,0,0.05,47.95,0)" xlink:href="#aZ"/><use transform="matrix(0.05,0,0,0.05,57.95,0)" xlink:href="#an"/><use transform="matrix(0.05,0,0,0.05,67.95,0)" xlink:href="#al"/></g><path fill="#333" d="M190 0L58-211 59 0H30v-248h39L202-35l-2-213h31V0h-41" id="bu"/><g id="Z"><use transform="matrix(0.05,0,0,0.05,0,0)" xlink:href="#bu"/><use transform="matrix(0.05,0,0,0.05,12.950000000000001,0)" xlink:href="#ar"/><use transform="matrix(0.05,0,0,0.05,22.950000000000003,0)" xlink:href="#aY"/><use transform="matrix(0.05,0,0,0.05,27.950000000000003,0)" xlink:href="#ak"/><use transform="matrix(0.05,0,0,0.05,37.95,0)" xlink:href="#aj"/><use transform="matrix(0.05,0,0,0.05,46.95,0)" xlink:href="#ai"/><use transform="matrix(0.05,0,0,0.05,50.900000000000006,0)" xlink:href="#ao"/><use transform="matrix(0.05,0,0,0.05,60.900000000000006,0)" xlink:href="#ah"/></g><path fill="#333" d="M64 0c3-98 48-159 88-221H18v-27h164v26C143-157 98-101 97 0H64" id="bv"/><g id="aa"><use transform="matrix(0.05,0,0,0.05,0,0)" xlink:href="#ad"/><use transform="matrix(0.05,0,0,0.05,10,0)" xlink:href="#ae"/><use transform="matrix(0.05,0,0,0.05,15,0)" xlink:href="#bv"/></g><g id="ab"><use transform="matrix(0.05,0,0,0.05,0,0)" xlink:href="#bt"/><use transform="matrix(0.05,0,0,0.05,14.950000000000001,0)" xlink:href="#ak"/><use transform="matrix(0.05,0,0,0.05,24.950000000000003,0)" xlink:href="#ah"/><use transform="matrix(0.05,0,0,0.05,34.95,0)" xlink:href="#au"/><use transform="matrix(0.05,0,0,0.05,44.95,0)" xlink:href="#ak"/><use transform="matrix(0.05,0,0,0.05,54.95,0)" xlink:href="#ba"/></g><path fill="#333" d="M232-93c-1 65-40 97-104 97C67 4 28-28 28-90v-158h33c8 89-33 224 67 224 102 0 64-133 71-224h33v155" id="bw"/><g id="ac"><use transform="matrix(0.05,0,0,0.05,0,0)" xlink:href="#bw"/><use transform="matrix(0.05,0,0,0.05,12.950000000000001,0)" xlink:href="#am"/><use transform="matrix(0.05,0,0,0.05,21.950000000000003,0)" xlink:href="#au"/><use transform="matrix(0.05,0,0,0.05,31.950000000000003,0)" xlink:href="#ak"/><use transform="matrix(0.05,0,0,0.05,41.95,0)" xlink:href="#al"/><use transform="matrix(0.05,0,0,0.05,47.900000000000006,0)" xlink:href="#ai"/><use transform="matrix(0.05,0,0,0.05,51.85,0)" xlink:href="#ar"/></g></defs></g></svg>