<?xml version="1.0" standalone="no"?>
<!DOCTYPE svg PUBLIC "-//W3C//DTD SVG 20010904//EN"
 "http://www.w3.org/TR/2001/REC-SVG-20010904/DTD/svg10.dtd">
<svg version="1.0" xmlns="http://www.w3.org/2000/svg"
 width="500.000000pt" height="500.000000pt" viewBox="0 0 500.000000 500.000000"
 preserveAspectRatio="xMidYMid meet">
<metadata>
Created by potrace 1.14, written by Peter Selinger 2001-2017
</metadata>
<g transform="translate(0.000000,500.000000) scale(0.100000,-0.100000)"
fill="#000000" stroke="none">
<path d="M2095 4970 c-33 -16 -103 -49 -155 -74 -184 -86 -296 -138 -350 -163
-30 -14 -102 -48 -160 -75 -58 -28 -154 -73 -215 -100 -60 -28 -166 -77 -234
-109 -68 -32 -125 -59 -127 -59 -2 0 -54 -24 -116 -54 -62 -30 -149 -70 -193
-91 -44 -20 -123 -57 -175 -81 -52 -25 -156 -73 -230 -107 -120 -56 -135 -66
-134 -88 1 -27 13 -169 19 -214 8 -67 15 -123 20 -170 3 -27 7 -68 10 -90 4
-39 7 -62 20 -190 4 -33 8 -73 10 -90 2 -16 7 -57 10 -90 4 -33 8 -73 10 -90
2 -16 6 -57 10 -90 3 -33 8 -71 10 -85 2 -14 6 -52 10 -85 3 -33 8 -76 10 -95
2 -19 7 -60 10 -90 3 -30 7 -68 9 -85 3 -16 7 -59 10 -95 3 -36 8 -76 10 -90
3 -14 7 -56 11 -93 3 -37 8 -76 10 -85 1 -9 6 -53 9 -97 4 -44 9 -87 11 -95 2
-8 6 -45 10 -81 3 -36 7 -76 10 -90 2 -13 6 -60 10 -104 4 -44 8 -82 10 -85 1
-3 6 -40 10 -83 3 -43 8 -88 10 -100 2 -12 6 -47 9 -77 3 -30 9 -82 13 -115 4
-33 6 -63 5 -66 0 -3 128 -64 286 -134 158 -70 316 -141 352 -158 36 -16 146
-65 245 -109 99 -44 205 -91 235 -105 30 -14 78 -36 106 -48 l51 -23 179 148
c98 82 179 148 180 147 3 -5 75 -140 103 -193 31 -58 35 -62 109 -94 106 -45
403 -176 480 -211 35 -16 66 -29 68 -29 3 0 31 -12 62 -26 31 -14 143 -63 247
-109 105 -46 251 -110 325 -143 l135 -61 22 27 c11 15 29 43 40 62 10 19 39
66 64 105 25 38 49 77 52 85 4 8 20 34 35 57 15 24 56 89 91 145 35 57 74 119
86 138 20 31 47 74 156 250 16 25 110 176 209 335 99 160 184 297 190 305 23
35 124 198 140 225 9 17 37 62 62 100 25 39 48 77 52 85 3 8 29 49 56 90 27
41 61 95 76 120 60 100 157 257 175 282 19 27 19 29 -2 130 -11 57 -23 112
-25 123 -2 11 -11 52 -19 90 -9 39 -18 84 -21 100 -3 17 -21 102 -39 190 -19
88 -43 205 -55 261 -11 55 -23 111 -25 125 -22 105 -37 177 -54 259 -11 52
-38 183 -61 290 -22 107 -48 229 -56 270 -9 41 -18 84 -20 95 -10 46 -25 122
-30 155 -8 51 -30 97 -45 98 -8 0 -25 3 -39 6 -28 6 -64 14 -95 20 -11 3 -114
25 -230 51 -115 26 -219 48 -230 51 -24 5 -96 20 -311 68 -88 19 -171 37 -185
40 -13 2 -76 16 -139 31 -63 14 -126 29 -140 31 -14 3 -54 12 -90 20 l-65 15
-25 -32 c-61 -79 -62 -80 -100 -69 -19 6 -46 12 -60 15 -14 3 -131 30 -260 61
-129 30 -246 58 -260 60 -14 3 -34 8 -45 11 -11 4 -25 8 -31 9 -6 1 -24 4 -40
7 -20 4 -48 -3 -89 -23z"/>
</g>
</svg>
